<svg xmlns="http://www.w3.org/2000/svg" viewBox="0 0 587.91 89.28">
    <defs>
        <style>
            .cls-1 {
                fill: #6071b6;
            }

            .cls-2 {
                fill: #6071b6;
            }
        </style>
    </defs>
    <title>Asset 1</title>
    <g id="Layer_2" data-name="Layer 2">
        <g id="Text">
            <path class="cls-1"
                d="M44.64,0a44.43,44.43,0,0,0-23.5,6.68A11,11,0,0,0,0,11V44.64a44.65,44.65,0,0,0,68.13,38,11,11,0,0,0,21.14-4.34V44.64A44.64,44.64,0,0,0,44.64,0Zm0,65.67a21,21,0,1,1,21-21A21,21,0,0,1,44.64,65.67Z" />
            <path class="cls-1"
                d="M138.22,65l-2.65-5.87H120.44L117.79,65H104.24L122.53,23.7h11L151.77,65ZM128,39l-4,10.44h8Z" />
            <path class="cls-1"
                d="M186.2,50.45q0,7.51-4.09,11.34T170,65.64q-6.72,0-11-3a15.49,15.49,0,0,1-5.84-9l10.22-3.67a7.28,7.28,0,0,0,1.95,3.84,4.94,4.94,0,0,0,3.53,1.3q4.68,0,4.68-5V33.8H162.43V23.64H186.2Z" />
            <path class="cls-1"
                d="M223.28,65l-2.65-5.87H205.5L202.85,65H189.3L207.59,23.7h11L236.83,65ZM213.06,39l-4,10.44h8Z" />
            <path class="cls-1"
                d="M265.84,65l-6.66-12.47h-3.84V65H242.75V23.64H262.4q7.68,0,11.63,3.81t4,11.2q0,9.77-6.77,11.91L279.5,65Zm-1.55-23.37a4,4,0,0,0,1.21-3.16q0-4.69-4.74-4.69h-5.42v8.92h5.42A5.17,5.17,0,0,0,264.29,41.59Z" />
            <path class="cls-2"
                d="M288.19,23.64h18.57q7.34,0,10.81,2.65t3.47,8.3a10.63,10.63,0,0,1-1.36,5.81,6.61,6.61,0,0,1-4.29,2.77v.06a8.11,8.11,0,0,1,5.39,3.08,11.54,11.54,0,0,1,1.72,6.8q0,6.1-3.7,9T307.33,65H288.19ZM304.9,39.56a4.12,4.12,0,0,0,2.6-.68,2.58,2.58,0,0,0,.85-2.15,2.83,2.83,0,0,0-.85-2.26,4,4,0,0,0-2.65-.73h-4v5.81Zm1.3,15.3q3.67,0,3.67-3.27t-3.78-3.33h-5.25v6.6Z" />
            <path class="cls-2" d="M344.86,33.74v5.48h18v10.1h-18v5.53h20.32V65H332.28V23.64h32.91v10.1Z" />
            <path class="cls-2" d="M408,54.85V65H375.68V23.64h12.7V54.85Z" />
            <path class="cls-2"
                d="M446.63,65,444,59.09H428.85L426.2,65H412.65L430.94,23.7h11L460.18,65ZM436.42,39l-4,10.44h8Z" />
            <path class="cls-2"
                d="M494.61,50.45q0,7.51-4.09,11.34t-12.11,3.84q-6.72,0-11-3a15.49,15.49,0,0,1-5.84-9l10.22-3.67a7.28,7.28,0,0,0,1.95,3.84,4.94,4.94,0,0,0,3.53,1.3q4.68,0,4.69-5V33.8H470.85V23.64h23.76Z" />
            <path class="cls-2"
                d="M531.69,65,529,59.09H513.91L511.26,65H497.71L516,23.7h11L545.24,65ZM521.48,39l-4,10.44h8Z" />
            <path class="cls-2"
                d="M574.25,65l-6.66-12.47h-3.84V65H551.17V23.64h19.64q7.68,0,11.63,3.81t4,11.2q0,9.77-6.77,11.91L587.91,65ZM572.7,41.59a4,4,0,0,0,1.21-3.16q0-4.69-4.74-4.69h-5.42v8.92h5.42A5.17,5.17,0,0,0,572.7,41.59Z" />
        </g>
    </g>
</svg>